<svg xmlns="http://www.w3.org/2000/svg" width="288" height="470" viewBox="0 0 288 470"><defs><linearGradient id="linear-gradient" x1="7060.29" y1="7190.58" x2="7060.85" y2="7148.25" gradientTransform="matrix(.81 0 -.05 -.81 -5191.24 6083.7)" gradientUnits="userSpaceOnUse"><stop offset="0" stop-color="#266787"/><stop offset="1" stop-color="#1f5369"/></linearGradient><linearGradient id="linear-gradient-2" x1="6815.85" y1="8411.56" x2="6808.67" y2="8438.36" gradientTransform="matrix(.67 .1 .09 -.67 -5195.82 5072.22)" gradientUnits="userSpaceOnUse"><stop offset="0" stop-color="#8c6744"/><stop offset="1" stop-color="#6f5135"/></linearGradient></defs><g id="Specs"><ellipse cx="130.77" cy="438.69" rx="81.61" ry="15" fill="#1298bc" opacity=".4"/><path d="M206.21 66.86q-1.29 9.77-12.53 14.42 5.72 7.52 1.93 15.1-3.6 7.29-11.47 7.19 2 13.56-5.48 20.73t-21.81 1.54q-14.22 11.46-21.63-4.48-1.23 4.33-11.35 5.24t-10.58-12.18q-17.43 2.22-20.76-6.42t4.94-15.9q-11.94-1.84-13.62-12.71t9.31-19A16.84 16.84 0 0 1 85 53.08q-2.91-5 0-12.6t16.56-7a15 15 0 0 1-2.66-10.85q.72-6.07 7-8.29t10.74 3.38q1.14-9.69 7.11-9.84a11.86 11.86 0 0 1 10 4.78q2.58-15.24 16.55-11.19 7.5 2.54 9.59 13.21 4.23-6.81 15-6.74t15.77 9.34q5.77 10.61.81 25.7 17.3 3.02 14.74 23.88z" fill="#110d09"/><path d="M40.79 174.48a13.63 13.63 0 0 0 .42-9.35q.23-9.72 5.22-14.45l-4.66-2.93q-5.28 4.27-5.43 13.13-7.4-7.87-12.44-9a12 12 0 0 0-2.59 6.69 10.32 10.32 0 0 0-2.26 5.85 11.71 11.71 0 0 0-2 5.22 11.35 11.35 0 0 0-.33 5.56 12.58 12.58 0 0 0 3.46 2.08 12.81 12.81 0 0 0 3.76.82s.52.14.55.13a15.33 15.33 0 0 0 8.16 2l6 3.31L45 177.1l-4.12-2.58z" fill="#8c6744"/><path d="M30.67 165.76v.12a31.59 31.59 0 0 1-5.9 12 .93.93 0 0 1-.37.34.34.34 0 0 1-.44-.12c-.08-.16 0-.35.12-.5l1.8-2.6a22.3 22.3 0 0 1-8-4c-.39-.31-.82-.85-.52-1.25 2.34 2.24 5.83 3.61 8.89 4.5a34.09 34.09 0 0 0 2.17-4.15 23.21 23.21 0 0 1-7.94-3.79 4.16 4.16 0 0 1-1.3-1.56 37.2 37.2 0 0 0 9.54 4.66c-.15-.05 1.78-3.42.74-3.88a18.54 18.54 0 0 1-8.07-6.93 26.2 26.2 0 0 0 8.75 6.39 28.53 28.53 0 0 1 1.34-6.42 5.3 5.3 0 0 0-3-1.46c-.26 0-.58 0-.68.22s.22.58.52.72l2.06 1a5.7 5.7 0 0 1-5.12-3.05 6.23 6.23 0 0 0 2 1.59c-.09-.05.51-.9.6-1 .67-.5 1.56-.11 2.2.23s1.76.83 2 1.48a1.3 1.3 0 0 1 0 .62 63 63 0 0 1-1.36 6.83m1.93-2.2v.13q-1 8.26 5 10.74h-.26q-6.45-1.35-4.77-10.86z" fill="#624830"/><path d="M95.88 133.57c-1 .16-3.5.89-3.93 2q-9.37 25.26-12 40.8-1.84 10.77-3.11 17.23l-.41-.32q-6.66-5.28-9-6.92a84.51 84.51 0 0 0-15.15-9c-.38-.15-1.14.08-2.27.7l-2.66-1.48a50.49 50.49 0 0 0-4.53-2.25 15.13 15.13 0 0 0-1.59 1.5 4 4 0 0 1-.41.41s-.29.38-.4.49a14.82 14.82 0 0 0-1.71 3 10 10 0 0 0-.41 1.05 14.78 14.78 0 0 0-.67 3.44 20.42 20.42 0 0 0 6.3 4.49c0 .31 0 .59.05.85.22 1.73 1.49 3.44 3.79 5.15 10.11 8.56 21.67 15.45 32.54 23 2.43 1.69 4.52 3.78 7.38 4.75 3.14 1.07 10.25-89.22 8.19-88.89z" fill="#204f69"/><path d="M47.33 176.6a50.49 50.49 0 0 0-4.53-2.25 15.13 15.13 0 0 0-1.59 1.5 4 4 0 0 1-.41.41s-.29.38-.4.49a14.82 14.82 0 0 0-1.71 3 10 10 0 0 0-.41 1.05 14.78 14.78 0 0 0-.67 3.44 20.42 20.42 0 0 0 6.3 4.49 13.75 13.75 0 0 1 .84-3.52 10.47 10.47 0 0 0 .53-1c.26-.5.54-1 .85-1.56a21.05 21.05 0 0 1 1.11-1.87s.53-.7.69-.86a7.69 7.69 0 0 1 .95-.93 4.48 4.48 0 0 1 1.09-.87z" fill="#185874"/><path d="M45.28 184.2a10.47 10.47 0 0 1-.53 1l-6.47-4.41a10 10 0 0 1 .41-1.05l6.59 4.45m2.72-4.31c-.16.16-.66.82-.69.86s-6.81-4-6.84-4 .4-.49.4-.49a4 4 0 0 0 .41-.41z" fill="#0a445c"/><path d="M143.17 415.85q-5.56-7-10.46-8.56-11.18-3.68-18.71 2.27c-10.58 8.37-20 18.22-32.13 24.51l.21 3.16q2.49 1.63 7.91 2.49 18.6 3.06 28.36-1.82l9.65-5.28c2.36 0 4 .73 5.06 2.19q7.68-.13 12.37-4.09 1.22-9.72-2.26-14.87z" fill="#222"/><path d="M133.1 429.79v5c-1-1.46-2.7-2.19-5.06-2.19z"/><path d="M116.32 426c-4.5.72-9.39 1.32-13.66-.41-2.69-1.09-2.8-3.32-1.15-5.51q6.49-5.75 12.49-10.52 7.53-5.94 18.71-2.27 4.9 1.56 10.46 8.56-4.41.11-10.48 4.46c-4.4 3.15-9.69 4.63-15 5.5z" fill="#8c6744"/><path d="M186.17 422.54q-5.56-7-10.46-8.56-11.19-3.68-18.71 2.27c-10.57 8.36-20.07 18.23-32.13 24.51l.21 3.16c1.66 1.09 4.3 1.92 7.9 2.49q18.61 3.06 28.37-1.82l9.65-5.28c2.36 0 4 .73 5.06 2.19q7.68-.15 12.37-4.09 1.22-9.73-2.26-14.87z" fill="#222"/><path d="M176.06 441.5c-1-1.46-2.7-2.19-5.06-2.19l5.09-2.83z"/><path d="M158.07 433.25c-4.17.72-10 1.63-13.41-1a3.53 3.53 0 0 1-1.46-3.31 5.18 5.18 0 0 1 2-2.66l6.44-5.66c2.83-2.48 5.73-5 9.19-6.51a19.59 19.59 0 0 1 14.1-.38 22.71 22.71 0 0 1 11.07 8.75c-4.62.55-8.57 3.44-12.67 5.65a47.31 47.31 0 0 1-14.33 4.95z" fill="#8c6744"/><g><path d="M93.91 266q9.61-1.38 21.16 3.42 11.87 4.88 21.48 37.08a189.86 189.86 0 0 1 6.87 34.84q1.85 18.19-7.32 20.12t-16 .08q-10.78-3.35-14.08-16t-8.94-29.64q-5.62-17-11-40.69-1.83-7.81 7.83-9.21z" fill="url(#linear-gradient)" id="_Characters_BRAN_Brandi_Assets_B_upperleg_Right_0_Layer0_0_FILL" data-name="Characters BRAN Brandi Assets B upperleg Right 0 Layer0 0 FILL"/><g id="_Characters_BRAN_Brandi_Assets_B_lowerleg_right_0_Layer0_0_FILL" data-name="Characters BRAN Brandi Assets B lowerleg right 0 Layer0 0 FILL"><path d="M150.37 362.38a128.7 128.7 0 0 1-6.79-19.23q-2.27-6.76-21-7.17t-16.8 9l2.28 15.73a111.51 111.51 0 0 1-1.85 40.79 31.9 31.9 0 0 0 3.26 12.65q2.39-6.21 15.48-3.12t19.92 7.55q8.82-25.66 5.47-56.2m-3.25-.3q-18.72-3-25.05-18.59 8.57 10.31 25.08 18.59z" fill="#1f5369"/><path d="M147.12 362.08q-18.72-3-25.05-18.59 8.54 10.31 25.05 18.59z" fill="#0b455b"/></g><path d="M147.12 362.08q-18.72-3-25.05-18.59 8.54 10.31 25.05 18.59z" fill="#0b455b"/><path d="M191.88 361.14l-8.12-7.44a49.23 49.23 0 0 1-5.76-15.8l-.06-.12q-.48-5.07-1.4-11.15L169 278.28a9.17 9.17 0 0 0-.49-1.48 68.24 68.24 0 0 0-4.17-26.69q-4.08-9-40.11-12.62t-38.89 15.14a117.34 117.34 0 0 0 .6 21.39 276.8 276.8 0 0 0 36.46 7.85l1.73.21q.08 8.15 4.61 22.87 3.67 11.94 7.49 23.84c2 6.28 4.71 12.44 5.64 19a167.86 167.86 0 0 0 3.39 17.92 208.23 208.23 0 0 1 4.53 26.95c.79 6.83 2.47 15.48-2.35 21.28l.62 9.3q6.74-7.59 17.7-4.39a170.71 170.71 0 0 1 22.94 8.7q8.37-24.98 3.18-66.41z" fill="#266787"/><path d="M104.31 278.6q10.16 7.11 24.44 4-3.15-.27-6.35-.71-8.91-1.3-18.09-3.29zm17.74.95q-2.28-9.17-1.65-22.34l-3-.08a99.47 99.47 0 0 0 1.75 20.12l-8.77-1.33a59.91 59.91 0 0 1-1.38-20.11l-2-.05a60.18 60.18 0 0 0 2 21.87zm-35.2-18.85l-.18 2.3a19.89 19.89 0 0 0 12-9.37h-2q-5.72 6.98-9.82 7.07zm46.63-1.5q7.72 8.22 20.28 10.16l.23-3a31.85 31.85 0 0 1-17.38-9.17zm28 91.9q12.6 14.88 27.9 11.16-16.82-2.08-27.92-11.16z" fill="#0b455b"/></g><g><path d="M144.71 131.88c-1.67-.3-3.22-.61-3.49-.65a87.58 87.58 0 0 0-18.24-.34c-2.84.23-6.11 1.25-8.9 1.07 1.62-1.6 4.44-2.66 6.5-3.61a58 58 0 0 1 7.09-2.74c5.18-1.62 10.83-2.5 16-.9a9.43 9.43 0 0 1 4.53 2.73 4.91 4.91 0 0 1 .95 5c-.08.2-2.35-.17-4.44-.56z" fill="#214f69"/><path d="M164.19 246.41c-.59-2.78-1.18-5.57-1.78-8.35a99.38 99.38 0 0 1-26 5.74v-94.07l-15.51-18.47c-6.49.15-13.33 1.89-18.32 6.22l-3.87 2.87-7.94 42.13-.47 52.84c-.76-.45-1.51-.91-2.24-1.41.42.29-.75 6.07-.88 6.87a64.89 64.89 0 0 1-1.53 7A108.07 108.07 0 0 0 124 258.43q20.42 1.85 41-8.3c-.28-1.24-.54-2.48-.81-3.72z" fill="#f2f2f2"/><path d="M162.41 238.06a99.61 99.61 0 0 1-46.95 5.32c-9.67-1.24-19.33-4-27.4-9.47-.37 2.83-.73 5.65-1.09 8.48a1.3 1.3 0 0 0 .07.83 1.36 1.36 0 0 0 .64.46c14.67 6.49 31.52 10.85 47.66 10.23a69.18 69.18 0 0 0 28.88-7.51c-.6-2.78-1.22-5.56-1.81-8.34zm-50.63-19.91c-6.13-1.16-12.58-2.55-18.33-5l.35 12.71q10 4.26 29.68 5.65c1.49.11 3.3.17 5.44.18h5.64v-12c-1 .06-2 .12-3 .15a91.58 91.58 0 0 1-19.78-1.69zm23.43-11.51v-12.22c-4.39 0-8.7-.08-12.92-.4q-19.29-1.43-28.7-5.59l-1 11.12q12.11 6.36 33.53 6.88c3.24.17 6.25.23 9.09.21zm-25.43-31.19q10.66 2.91 25.54 3v-12.58a107 107 0 0 1-23.18-2.29 64.61 64.61 0 0 1-11.14-3.17 27.63 27.63 0 0 1-4.76-2.49l-1.11 12.75a68 68 0 0 0 14.64 4.81z" fill="#428c2f"/><ellipse cx="132.74" cy="134.25" rx="13.25" ry="5.69" transform="rotate(-4.12 132.828 134.222)" fill="#8c6744"/><path d="M147 132.17a.37.37 0 0 0-.06-.1c-.76-.13-1.49-.24-2.17-.33a1.1 1.1 0 0 1 .9 1.76c-.48.91-1.74 1.45-2.6 1.91a31.77 31.77 0 0 1-8.35 3c-3.48.58-7.68.92-11.07-.31-1.62-.59-4.38-2.58-3-4.24a9.82 9.82 0 0 1 5.72-3.51s-5.21.94-5.39.93q-11.18 6.08-14.24 16.54a51 51 0 0 1 11.22-6.24 33.44 33.44 0 0 0-4.47 15.2l8.13 1.14a32.35 32.35 0 0 1 3.62-14.48q5.07 4.23 11.65 10.66 4.47-11 8.37-15.34t1.78-6.57" fill="#3c3c3c"/><path d="M118.51 144.53a2 2 0 0 0-.58 2.32 1.9 1.9 0 0 0 2.16.9 2 2 0 0 0 1.37-1.92 1.74 1.74 0 0 0-2.95-1.3m-1.76 7a2.47 2.47 0 0 0-.52.79 2.09 2.09 0 0 0 .23 2.12 1.88 1.88 0 0 0 2.65 0c1.21-1.2.46-4-1.54-3.43a1.92 1.92 0 0 0-.82.52z"/></g><g><path d="M153.67 116.16c-5.64-1.86-11.63-2.31-17.54-2.49-.91 0-10.74 0-10.77-.45v.06l-.07-.11a72.29 72.29 0 0 0-14.57 5c-1.18.54-13.43 6.38-13.15 7.12l2 6.21c-2.14.31-4.3.69-6.5 1.16A45.26 45.26 0 0 0 91.64 150a46.91 46.91 0 0 0-3 6.56q-5.64 14.93-2.53 26.32a67.94 67.94 0 0 1 1.76 22.69 117.84 117.84 0 0 1-2.82 18.68c-.59 2.46-1.41 4.84-1.89 7.31-.25 1.27-.44 2.54-.6 3.82-.06.51-.73 4.21-.4 4.42a38.63 38.63 0 0 0 14.56 5.42l.83-13.32Q95.27 192 102 157.79a53.48 53.48 0 0 1 5.36-15.59c4.36-7.3 11.33-12.12 19.09-15.27.79 1 1 1.61 2.28 1.79 6.11.89 12.29 1.31 18.29 2.81.89.22 9.51 3 9.68 2.64a26.3 26.3 0 0 1 9.42-10.76s-6.34-4.43-7-4.8a27.7 27.7 0 0 0-5.45-2.45z" fill="#266787"/><path d="M97.55 231.9a24.21 24.21 0 0 1-3.71-.29 49.12 49.12 0 0 0-1.45 12.68 43.77 43.77 0 0 0 4.33.93l.83-13.32m-11-3a24.93 24.93 0 0 1-2.33-1.45 49.3 49.3 0 0 0-2.06 12.34q1.14.72 2.37 1.38a27.85 27.85 0 0 1 2-12.27m6 2.41a23 23 0 0 1-4.8-1.8 48.81 48.81 0 0 0-1.95 12.27 51.57 51.57 0 0 0 5 2.11 43 43 0 0 1 1.73-12.57z" fill="#225d7d"/><path d="M115.37 122.43l-.8 11.13a58.14 58.14 0 0 1 5.82-3.73l1.61-10.25a41 41 0 0 0-6.63 2.85zm-7.91 17a67.76 67.76 0 0 1 5.62-4.79l1.25-11.64a43.83 43.83 0 0 0-6.07 4.15zm50.39-16.69a30.53 30.53 0 0 0-7.86-2.45l-2.7 11.25q4.62 1.1 9.41 2.6a26.3 26.3 0 0 1 9.42-10.76 25.59 25.59 0 0 0-8.27-.61zm-14.09-3.45l-1.1 11.21 3.42.75 2.66-11.2c-1.52-.27-3.18-.52-4.98-.73zM128.37 118v-.1l-5.15 1.31-1.47 9.88a48.89 48.89 0 0 1 4.68-2.13l1.35 1.73c.86.05 1.73.1 2.59.17l.41-10.75q-1.16-.09-2.34-.15zm2.95 10.91c1.31.13 2.63.28 4 .46l.71-10.88c-1.29-.12-2.62-.22-4-.31zm5.11.59c1.67.23 3.35.51 5 .84l.84-11.2c-1.63-.2-3.37-.39-5.22-.56z" fill="#204f69"/><path d="M91.75 209.88c-1.49 2.37-3.13 3.84-4.93 4.39q-.43 2.76-.88 5.27a15.35 15.35 0 0 0 5.47-4.2zm-7.22 31.3l1.23.61a48.81 48.81 0 0 1 1.95-12.27 12.94 12.94 0 0 1-1.16-.61 27.85 27.85 0 0 0-2.02 12.27zm6.24 2.72a11.43 11.43 0 0 1 1.62.39 49.12 49.12 0 0 1 1.45-12.68c-.44-.09-.89-.18-1.33-.29a43 43 0 0 0-1.74 12.58zm15-123.3a15.14 15.14 0 0 1 8.54 2.38l-1.25 11.69c.5-.38 1-.75 1.49-1.11l.8-11.13a11.92 11.92 0 0 0-7.81-2.7q-.89.41-1.75.87zm-8.22 4.69l9.71 2.62-.77 12.44.95-.89.8-12.33-9.37-2.67c-.42.27-.87.54-1.3.83zm15.51-8c4.66.59 7.61 1.37 8.87 2.33l-1.56 10.25q.69-.39 1.38-.75l1.47-9.88a15.76 15.76 0 0 0-8.18-2.73q-1.04.34-1.96.74zm29.24 1.88l-.84 11.2c.39 0 .79.12 1.18.2l1.1-11.21a8.36 8.36 0 0 1 1.79-4.86c-.62-.1-1.24-.19-1.89-.26a8.28 8.28 0 0 0-1.32 4.89zm-13.58-5.76a7.15 7.15 0 0 1 2.06 4.71l-.41 10.75.93.07.66-10.73a8.8 8.8 0 0 0-2-4.74c-.4-.05-.83-.07-1.22-.1zm6.57.32a8.58 8.58 0 0 1 .68 4.79l-.71 10.88c.37 0 .75.07 1.15.13l.67-10.92a8.19 8.19 0 0 0-.41-4.81c-.45-.07-.91-.1-1.36-.11zm16.75 2.13a7.39 7.39 0 0 0-3.32 4.26l-2.66 11.2c.41.09.82.18 1.21.29l2.7-11.25a9 9 0 0 1 3.64-4c-.49-.24-1.01-.36-1.55-.54z" fill="#0b455b"/></g><path d="M148.4 109.43q-1.32 6-1.18 19.78-12.36 7.9-24.46 3.59 4.89-13.79 3.63-37.49a62.72 62.72 0 0 1 26.81-7q-2.49 9.15-3 12.17c-.29 2.03-.89 5.01-1.8 8.95z" fill="url(#linear-gradient-2)"/><g><path d="M176 51.56q-5.05-13.32-22-18T121.5 38q-11.82 6.94-16 23.91a98.13 98.13 0 0 1 1.26 15.8 19.35 19.35 0 0 0-2.39 11.76 16.57 16.57 0 0 0 .37 2q1.33 6.26 6.73 14.86a45.53 45.53 0 0 0 4.1 5.86q3.31 3.69 9.32 3.1a62.9 62.9 0 0 0 8.55-1.21c.78-.16 1.51-.35 2.21-.56a36.54 36.54 0 0 0 8.69-4 12 12 0 0 0 2.65-2.41c1.41-1.67 4-6.25 7.75-13.7q11.16-3.33 17.63-14.08 8.69-14.47 3.63-27.77z" fill="#8c6744"/><path d="M163.34 36.06q-19.31-9.14-32.55-5a38.61 38.61 0 0 0-11.1 5.49 31 31 0 0 0-8.46 9.25q-2.42 5.7-1.77 5.25a35.66 35.66 0 0 1 7.54-9.74q-.37 3.9 6.45 6.49 5.3 2.25 13.1-.47l.2-.07c5.23-1.69 16.87-1.84 15.09 6.71q-1.41 6.75-2 11.35v.2a73.35 73.35 0 0 1 4.93 20.83c.12 1.67.26 3.34.3 5q4.34 5.92 5.24 7Q172.79 87.16 177 69.13q5.66-23.95-13.66-33.07z" fill="#201811"/><path d="M135.14 37A58.06 58.06 0 0 1 158 47q2.69 6 2.42 16.73-.19 7.31-5.47 24.54c6.43-9.6 12.38-20.69 12.64-32.51A28.25 28.25 0 0 0 164 40.91Q149.12 30.8 128 32a36.41 36.41 0 0 0-8.3 4.51q3.86-1.62 15.44.49z" fill="#428c2f"/><path d="M171.86 90.9q-5.24 10.69-9.75 11.32c-3 .41-7-.69-10.25-3.22 2.57-12.13 6.27-18.73 9.41-19.89a15.39 15.39 0 0 1 9.37-.54q4.65 1.17 1.22 12.33" fill="#8c6744"/><path d="M168.09 82q-7 2.33-10.3 13.77A168.47 168.47 0 0 1 168.09 82zM123.08 92.83a3.09 3.09 0 0 0 3-.76 2.16 2.16 0 0 0 .25-3 6.66 6.66 0 0 0-4.45-2.59q-3.09-.67-4.76.68a2.09 2.09 0 0 0-.62 2.91 3 3 0 0 0 1.39 1.25l1.19-2.79-.08 3.88c0 .37-.54.62-.86.5a4.73 4.73 0 0 1-3.08-2.85 3.29 3.29 0 0 1 1.23-3.9c1.35-1.16 3.29-1.48 5.84-1a7.65 7.65 0 0 1 5.29 3.16A3.34 3.34 0 0 1 127 93a4.32 4.32 0 0 1-4.88.89 1.3 1.3 0 0 1-.42-.74l.89-3.54z" fill="#624830"/><path d="M143.51 80.5c-2.69-1.85-6.93-2-9.86-.66-.44.2-4.62 2-4.42 2.26 2.05 2.2 4.49 4.79 7.6 5.29a8 8 0 0 0 7.76-3c1.41-2.01.41-2.89-1.08-3.89zm-32.06-6.61q-3.72-1.26-4.53 1.8a7.66 7.66 0 0 0 1.87 4.39q1.11 1.45 4.52 1.69a31.1 31.1 0 0 0 5-.23q-3.14-6.39-6.86-7.65z" fill="#fff"/><path d="M144.07 79.92l-1.19-.55-.35-.12a11.19 11.19 0 0 0-2.87-.87 14.66 14.66 0 0 0-9.61 3.05.4.4 0 0 1-.15.1l-.67.57a26.2 26.2 0 0 1 4.72-1 .51.51 0 0 0-.07.15 4.81 4.81 0 0 0 .46 3.38 3.26 3.26 0 0 0 2.27 1.83 3.19 3.19 0 0 0 2.81-.74 4.75 4.75 0 0 0 1.71-2.9 5.4 5.4 0 0 0 .09-1.12 6.73 6.73 0 0 1 3.66 2.3 11.15 11.15 0 0 0 3-4.77c-.36.77-1.63.97-3.81.69zm-35.9-7.79a3 3 0 0 1-.52-.11 2.32 2.32 0 0 1-1.86-1.49 8.83 8.83 0 0 0 1.13 5.16.27.27 0 0 1 0-.12q.27-1.66 4.25-.6l.33.11a4 4 0 0 0-.8 1.76 3.93 3.93 0 0 0 .33 2.64 2.61 2.61 0 0 0 1.8 1.44 2.52 2.52 0 0 0 2.2-.58 3.66 3.66 0 0 0 1.2-1.86 13.41 13.41 0 0 1 2 3.06q-2.42-8.34-10.06-9.41zM142 67.82a21 21 0 0 1 8.26 5.06 12.26 12.26 0 0 0-4.07-6.4 11.57 11.57 0 0 0-8.65-2.94c-3.44.13-6 1.41-7.63 3.84q7.43-1.14 12.09.44zm-25-3.86c-1.16-3-2.92-4.92-5.28-5.65s-4.12-.85-5.27-.34a4.76 4.76 0 0 0-.49 3.48q4.38-2.22 11.11 2.55z" fill="#201811"/><path d="M125.86 104.18a6.78 6.78 0 0 0-4.33 2.79 9.09 9.09 0 0 0 6.08 0 8 8 0 0 0 3.57-2 8.41 8.41 0 0 0-5.32-.79z" fill="#ff5468"/><path d="M133 100.53a13.47 13.47 0 0 1-6.24-.81q-4.45-1.47-11.94-3.24-.27 1.77 1.78 4.17l.84.37q6.79 2.72 15.56-.49z" fill="#5a3f2e"/><path d="M133 101.17v-.64q-8.75 3.21-15.56.49v1.21q9.24 2.42 15.56-1.06z" fill="#fff"/><path d="M121.53 107a6.78 6.78 0 0 1 4.33-2.79 8.41 8.41 0 0 1 5.32.87 5.81 5.81 0 0 0 1.18-1.64 7 7 0 0 0 .56-1.9 2.09 2.09 0 0 1 0-.34q-6.28 3.48-15.54 1.06V101l-.84-.37a8.73 8.73 0 0 0 1.18 3.28 5.76 5.76 0 0 0 1 1.3 9 9 0 0 0 2.81 1.79z" fill="#311c1c"/><path d="M115.49 109.17q14.14 5.79 16.87-5.76a5.81 5.81 0 0 1-1.18 1.64 8 8 0 0 1-3.57 2 8.45 8.45 0 0 1-8.81-1.78 5.76 5.76 0 0 1-1-1.3c-1.94 1.66-2.69 3.4-2.31 5.2z" fill="#b38466"/></g><g><path d="M170.81 140.93l-11.92-6q2.54-8.49 7.23-11.55s-2.6-1.55-2.9-1.66a12 12 0 0 0-4.07-.71 27 27 0 0 0-8.34 1.76 51.64 51.64 0 0 0-17.81 9.8l-2.78 23.88q-.94 19-1 41a253.6 253.6 0 0 1-2.65 30.34c-.28 1.77-.47 2.94-.55 3.5a4.2 4.2 0 0 0 2.48 2.73q-1 9.11-2.53 16.15a36.86 36.86 0 0 0 7.09 1.11 45.84 45.84 0 0 0 16.8-2.28 50.21 50.21 0 0 0 8.06-3.44c1.28-.69 6-2.84 6.35-4.48q1.17-6.21-1.69-16.1a66.46 66.46 0 0 0-4.31-10.52l2.46-3.54-2.93-4A197.39 197.39 0 0 0 176.16 166q4.97-18.22-5.35-25.07z" fill="#266787"/><path d="M136.94 236a3.85 3.85 0 0 0-.67-.09 93.09 93.09 0 0 1-1.43 15.44 41.18 41.18 0 0 0 8.88-.84l1.61-14.64a35.82 35.82 0 0 1-8.39.13m-2.33-.3a19.78 19.78 0 0 1-6.19-1.68q-1 9.11-2.53 16.15a36.86 36.86 0 0 0 7.09 1.11 104.44 104.44 0 0 0 1.63-15.58m18.9 11.89a107.86 107.86 0 0 0 .41-14.6 23.66 23.66 0 0 1-7 2.59 119.92 119.92 0 0 1-1.72 14.64l2.73-.72c2-.62 3.9-1.25 5.63-1.91m9.07-22.65a10.82 10.82 0 0 1-2.33 3.36 69.8 69.8 0 0 1 1.35 15 22.11 22.11 0 0 0 2.67-2.29q1.17-6.21-1.69-16.1m-7.42 7.29A101.93 101.93 0 0 1 155 247a45.45 45.45 0 0 0 4.69-2.36 62.32 62.32 0 0 0-.31-15.43c.04.25-4.25 2.55-4.22 3.01z" fill="#225d7d"/><path d="M136.27 235.9l-1.66-.21a104.44 104.44 0 0 1-1.61 15.58c.62 0 1.23.07 1.86.07a93.09 93.09 0 0 0 1.43-15.44m10.6-.33c-.5.11-1 .2-1.54.29l-1.61 14.64c.47-.08.95-.18 1.43-.29a119.92 119.92 0 0 0 1.72-14.64m7-2.59a107.86 107.86 0 0 1-.41 14.6L155 247a101.93 101.93 0 0 0 .16-14.73 12 12 0 0 1-1 .63 1.74 1.74 0 0 0-.2.13m6.33-4.69q-.41.42-.87.87a62.32 62.32 0 0 1 .31 15.43c.67-.42 1.31-.84 1.91-1.27a69.8 69.8 0 0 0-1.35-15m-3.38 2.8c.47-.34.91-.66 1.33-1a40.58 40.58 0 0 0-5.33-15.75l2-2.64-1.78-4.43q8.81-14.67 15.48-46.2a267.24 267.24 0 0 1-17.42 46.35l1.32 3.87-1.87 3.25q4.92 6.51 6.24 16.53m-1.43-109.64a42.88 42.88 0 0 1 10.68 2c-2.74-2.23-6.31-2.88-10.68-2M137 215l-2.32 4.48a31.69 31.69 0 0 0 14.9 9l.28-4.46A50.43 50.43 0 0 1 137 215m-4-82.42a25.16 25.16 0 0 1 12.35 2.08c.24-.3.53-.64.88-1a21.07 21.07 0 0 0-11.51-2.47c-.6.45-1.17.92-1.72 1.4m17.95-3l1.33-1.06q-4.81-3.39-8.7-2.73c-.69.32-1.35.66-2 1q6.84.16 9.36 2.79m6.21-4c.43-.21.89-.41 1.37-.6a10.36 10.36 0 0 0-6.2-2.68c-.86.25-1.69.52-2.47.81q5.39.33 7.27 2.49z" fill="#0b455b"/><path d="M113 219.87s-3.13-.19-3.6-.19a21.34 21.34 0 0 0-3.66-4.44 16.79 16.79 0 0 0-5-3.55l-5.13-2.07a67.2 67.2 0 0 0-14.36-2.92l-.4 4.67q10.65 1.84 12.56 4.63t-3.32 4.3q-5.18 1.58-19.66 1.53l.61 5.38q12.27-.48 20-1.21l-23.58 4.26 2.46 4.2 23.22-3.14A151.9 151.9 0 0 1 71.65 236l2.7 4.33 20.25-4.81a57.94 57.94 0 0 1-15.71 5l2.58 2.7a99.94 99.94 0 0 0 17-4.63 28.28 28.28 0 0 0 8.24-4.8 15.21 15.21 0 0 0 3.09-3.79l2.87.38z" fill="#8c6744"/><path d="M183.52 202.37c-.48-8.81-1.43-17.6-2.63-26.32-.61-4.41-1.3-8.82-2-13.21-.64-3.92-.78-7.83-1.78-11.7a43.59 43.59 0 0 0-2.12-6.3 27.24 27.24 0 0 0-4.86-.63 17.07 17.07 0 0 0-6 .89 14.52 14.52 0 0 0-7.44 6.12q-3.74 7.35-2.15 18.3l7.42 41.77-39.26 4a4.44 4.44 0 0 0-3 4.06 20.38 20.38 0 0 0-7.76 0c-.33.08-.9 1.69-1 2a14.4 14.4 0 0 0-.76 2.24 13.94 13.94 0 0 0 .08 6.85 44.49 44.49 0 0 0 5 .78l3 .32c.52 1.18 1 1.83 1.41 1.92a83 83 0 0 0 17.51 1.43 236.8 236.8 0 0 0 34.37-2.56c2.93-.45 7-1.58 9.4-3.4s2.74-5.08 2.84-7.75c.21-6.28.07-12.55-.27-18.81z" fill="#204f69"/><path d="M117.84 230.19a7.19 7.19 0 0 1-.21-1.28l-7.81-.65a17.06 17.06 0 0 0 .41 2.16 44.49 44.49 0 0 0 5 .78l3 .32a4.68 4.68 0 0 1-.36-1.33m0-4.6c.08-.63.18-1.21.29-1.74l-8-.22a13.8 13.8 0 0 0-.39 3.51l7.86.63c0-.65.11-1.38.22-2.18m.44-2.88a12.61 12.61 0 0 1 1.42-3.34 20.38 20.38 0 0 0-7.76 0 15.88 15.88 0 0 0-1.51 3.22z" fill="#185874"/><path d="M117.59 227.8s-7.82-.64-7.86-.63c0 .16.08.93.09 1.12l7.81.62v-1.08m-7.16-5.26c-.06.18-.26.89-.3 1.06l8 .25c0-.06.22-1.09.23-1.13z" fill="#0a445c"/></g></g></svg>
